<svg width="28" height="28" fill="#bbbbbb" viewBox="0 0 28 28" xmlns="http://www.w3.org/2000/svg">
  <rect width="28" height="28" fill="#bbbbbb" rx="5"/>
  <path fill="white" d="M19.2 8.5C19.2 9.32843 18.5284 10 17.7 10C16.8716 10 16.2 9.32843 16.2 8.5C16.2 7.67157 16.8716 7 17.7 7C18.5284 7 19.2 7.67157 19.2 8.5Z"/>
  <path fill-rule="evenodd" clip-rule="evenodd" fill="white" d="M14 18C16.7614 18 19 15.7614 19 13C19 10.2386 16.7614 8 14 8C11.2386 8 9 10.2386 9 13C9 15.7614 11.2386 18 14 18ZM14 16C15.6569 16 17 14.6569 17 13C17 11.3431 15.6569 10 14 10C12.3431 10 11 11.3431 11 13C11 14.6569 12.3431 16 14 16Z"/>
  <path fill-rule="evenodd" clip-rule="evenodd" fill="white" d="M5 12.6C5 9.23966 5 7.55945 5.65396 6.27606C6.2292 5.14708 7.14708 4.2292 8.27606 3.65396C9.55945 3 11.2397 3 14.6 3H15.4C18.7603 3 20.4405 3 21.7239 3.65396C22.8529 4.2292 23.7708 5.14708 24.346 6.27606C25 7.55945 25 9.23966 25 12.6V13.4C25 16.7603 25 18.4405 24.346 19.7239C23.7708 20.8529 22.8529 21.7708 21.7239 22.346C20.4405 23 18.7603 23 15.4 23H14.6C11.2397 23 9.55945 23 8.27606 22.346C7.14708 21.7708 6.2292 20.8529 5.65396 19.7239C5 18.4405 5 16.7603 5 13.4V12.6ZM14.6 6H15.4C17.1132 6 18.2777 6.00156 19.1779 6.0751C20.0548 6.14674 20.5032 6.27659 20.816 6.43597C21.5686 6.81947 22.1805 7.43139 22.564 8.184C22.7234 8.4968 22.8533 8.9452 22.9249 9.8221C22.9984 10.7223 23 11.8868 23 13.6V14.4C23 16.1132 22.9984 17.2777 22.9249 18.1779C22.8533 19.0548 22.7234 19.5032 22.564 19.816C22.1805 20.5686 21.5686 21.1805 20.816 21.564C20.5032 21.7234 20.0548 21.8533 19.1779 21.9249C18.2777 21.9984 17.1132 22 15.4 22H14.6C12.8868 22 11.7223 21.9984 10.8221 21.9249C9.9452 21.8533 9.4968 21.7234 9.184 21.564C8.43139 21.1805 7.81947 20.5686 7.43597 19.816C7.27659 19.5032 7.14674 19.0548 7.0751 18.1779C7.00156 17.2777 7 16.1132 7 14.4V13.6C7 11.8868 7.00156 10.7223 7.0751 9.8221C7.14674 8.9452 7.27659 8.4968 7.43597 8.184C7.81947 7.43139 8.43139 6.81947 9.184 6.43597C9.4968 6.27659 9.9452 6.14674 10.8221 6.0751C11.7223 6.00156 12.8868 6 14.6 6Z"/>
</svg>
