<svg width="28" height="28" fill="#bbbbbb" viewBox="0 0 28 28" xmlns="http://www.w3.org/2000/svg">
    <rect width="28" height="28" fill="#bbbbbb" rx="5"/>
    <g transform="scale(0.061, 0.061) translate(0, 0)">
        <path fill="white" d="M370.257,67.393H100.744C47.866,67.393,5,110.259,5,163.137v134.728c0,52.878,42.866,95.744,95.744,95.744h269.513c52.878,0,95.744-42.866,95.744-95.744V163.137C465.001,110.259,422.135,67.393,370.257,67.393z M305.506,237.056l-126.06,60.123c-3.359,1.602-7.239-0.847-7.239-4.568V168.607c0-3.774,3.982-6.22,7.348-4.514l126.06,63.881C309.363,229.873,309.298,235.248,305.506,237.056z"/>
    </g>
</svg>
